<?xml version="1.0" encoding="UTF-8"?>
<svg width="540" height="720" viewBox="0 0 540 720" xmlns="http://www.w3.org/2000/svg">
  <!-- Fondo gradiente -->
  <defs>
    <linearGradient id="grad" x1="0%" y1="0%" x2="100%" y2="100%">
      <stop offset="0%" style="stop-color:#10B981;stop-opacity:0.1" />
      <stop offset="100%" style="stop-color:#10B981;stop-opacity:0.3" />
    </linearGradient>
  </defs>

  <rect width="540" height="720" fill="#F8FAFC"/>
  <rect width="540" height="720" fill="url(#grad)"/>

  <!-- Header simulado -->
  <rect y="0" width="540" height="80" fill="#10B981" opacity="0.15"/>

  <!-- Contenido simulado -->
  <rect x="40" y="120" width="460" height="40" rx="8" fill="#10B981" opacity="0.2"/>
  <rect x="40" y="180" width="360" height="24" rx="6" fill="#CBD5E1" opacity="0.5"/>
  <rect x="40" y="220" width="400" height="24" rx="6" fill="#CBD5E1" opacity="0.5"/>
  <rect x="40" y="260" width="300" height="24" rx="6" fill="#CBD5E1" opacity="0.5"/>

  <!-- Card simulada -->
  <rect x="30" y="320" width="480" height="200" rx="20" fill="white" opacity="0.9"/>
  <rect x="50" y="350" width="280" height="20" rx="4" fill="#10B981" opacity="0.3"/>
  <rect x="50" y="390" width="440" height="12" rx="3" fill="#CBD5E1" opacity="0.4"/>
  <rect x="50" y="410" width="420" height="12" rx="3" fill="#CBD5E1" opacity="0.4"/>
  <rect x="50" y="430" width="380" height="12" rx="3" fill="#CBD5E1" opacity="0.4"/>

  <!-- Texto de placeholder -->
  <text x="270" y="600" font-family="system-ui, -apple-system" font-size="24" font-weight="bold" text-anchor="middle" fill="#1E293B">
    Chat IA
  </text>
  <text x="270" y="635" font-family="system-ui, -apple-system" font-size="14" text-anchor="middle" fill="#64748B">
    PLACEHOLDER - Tomar screenshot real
  </text>
  <text x="270" y="660" font-family="system-ui, -apple-system" font-size="12" text-anchor="middle" fill="#94A3B8">
    Chat con asistente parroquial
  </text>
</svg>